<?xml version="1.0" encoding="UTF-8" standalone="no"?>
<!DOCTYPE svg PUBLIC "-//W3C//DTD SVG 20010904//EN"
              "http://www.w3.org/TR/2001/REC-SVG-20010904/DTD/svg10.dtd">

<svg xmlns="http://www.w3.org/2000/svg"
     width="14.2222in" height="14.2222in"
     viewBox="0 0 1024 1024">
  <path id="Selection"
        fill="hsl(52, 100%, 60%)" stroke="black" stroke-width="1"
        d="M 511.00,179.00
           C 511.00,179.00 513.00,179.00 513.00,179.00
             513.00,179.00 545.75,244.00 545.75,244.00
             545.75,244.00 614.74,380.00 614.74,380.00
             614.74,380.00 644.26,439.00 644.26,439.00
             644.26,439.00 753.74,654.00 753.74,654.00
             753.74,654.00 783.26,713.00 783.26,713.00
             783.26,713.00 837.25,819.00 837.25,819.00
             837.25,819.00 852.25,849.00 852.25,849.00
             852.25,849.00 860.00,864.00 860.00,864.00
             860.00,864.00 164.00,864.00 164.00,864.00
             164.00,864.00 171.75,849.00 171.75,849.00
             171.75,849.00 186.75,819.00 186.75,819.00
             186.75,819.00 240.74,713.00 240.74,713.00
             240.74,713.00 270.26,654.00 270.26,654.00
             270.26,654.00 380.74,437.00 380.74,437.00
             380.74,437.00 409.26,380.00 409.26,380.00
             409.26,380.00 478.25,244.00 478.25,244.00
             478.25,244.00 511.00,179.00 511.00,179.00 Z" />
</svg>
